<svg version="1.1" id="Layer_1" xmlns="http://www.w3.org/2000/svg" xmlns:xlink="http://www.w3.org/1999/xlink" x="0px" y="0px" viewBox="0 0 50 50" style="enable-background:new 0 0 50 50;" xml:space="preserve" class=" drawsvg-initialized ">
                      <g id="Icon_8_">
                        <g>
                          <path style="fill-rule: evenodd; clip-rule: evenodd; fill: rgb(254, 134, 212); stroke-dasharray: 170.727, 170.727; stroke-dashoffset: 0;" d="M40.96,35.306c0.33-1.05-0.254-2.169-1.303-2.499
                            c-4.685-1.473-6.675-9.866-7.141-12.961c-0.068-0.438-0.295-0.864-0.295-0.864c-0.86-1.638-4.117-2.402-4.484-2.446
                            c-0.658-0.079-0.742-0.583-0.77-0.754c1.15-0.8,1.927-2.732,1.927-4.477c0-2.577-0.272-4.666-3.782-4.666
                            c-0.047,0-0.227,0-0.274,0c-3.51,0-3.781,2.089-3.781,4.666c0,1.745,0.777,3.677,1.927,4.477c-0.028,0.171-0.137,0.683-0.77,0.754
                            c-0.395,0.044-4.133,0.927-4.636,2.833c0,0-0.062,0.272-0.099,0.485c-0.005,0.028-0.392,2.907-1.551,6.034
                            c-0.989,2.667-2.76,6.032-5.584,6.92c-1.05,0.33-1.633,1.449-1.303,2.499c0.265,0.844,1.04,1.386,1.878,1.395
                            c-1.679,0.966-1.925,2.313-1.925,3.011c0,0.277,0.143,1.179,0.799,2.01c0.588,0.747,1.761,1.637,4.005,1.637
                            c0.337,0,0.693-0.02,1.059-0.059c1.493-0.161,2.999-0.402,4.454-0.635c0.528-0.085,1.056-0.169,1.585-0.25
                            c0.704-0.108,1.974-0.18,3.772-0.213h0.617c1.799,0.033,3.068,0.105,3.772,0.213c0.529,0.081,1.057,0.165,1.585,0.25
                            c1.456,0.233,2.961,0.474,4.454,0.635c0.366,0.039,0.722,0.059,1.059,0.059c2.244,0,3.417-0.89,4.005-1.637
                            c0.655-0.831,0.799-1.733,0.799-2.01c0-0.698-0.246-2.045-1.925-3.011c0.009,0,0.019,0.001,0.028,0.001
                            C39.907,36.702,40.693,36.158,40.96,35.306z M17.684,35.054c-1.01,0.315-1.243,0.348-2.107,0.47
                            c-0.281,0.039-0.627,0.089-1.085,0.16c-0.449,0.048-0.86,0.112-1.239,0.189c2.598-1.436,4.694-4.174,6.247-8.17
                            c0.087,0.779,0.14,1.636,0.14,2.579C19.64,33.358,18.082,34.93,17.684,35.054z M35.459,35.684
                            c-0.458-0.071-0.803-0.125-1.085-0.16c-2.722-0.335-4.063-2.166-4.063-5.242c0-0.984,0.058-1.875,0.151-2.679
                            c1.563,4.065,3.681,6.843,6.314,8.286C36.376,35.805,35.939,35.735,35.459,35.684z"></path>
                        </g>
                      </g>
                    </svg>