<svg version="1.1" id="Layer_1" xmlns="http://www.w3.org/2000/svg" xmlns:xlink="http://www.w3.org/1999/xlink" x="0px" y="0px" viewBox="0 0 50 50" style="enable-background:new 0 0 50 50;" xml:space="preserve" class=" drawsvg-initialized ">
                      <g id="Icon_7_">
                        <g>
                          <path style="fill-rule: evenodd; clip-rule: evenodd; fill: rgb(254, 134, 212); stroke-dasharray: 195.2, 195.2; stroke-dashoffset: 0;" d="M34.354,41.248c-0.414-0.064-0.727-0.108-0.981-0.144
                            c-0.781-0.111-0.991-0.141-1.905-0.425c-0.36-0.112-1.768-1.532-1.768-4.31c0-3.58,0.85-6.741,1.216-7.934
                            c0.01-0.031,0.033-0.121,0.066-0.243c0.06-0.224,0.504-1.577,0.504-1.577c0.24-0.688,0.489-1.4,0.651-2.131l0.009-0.037
                            c0.244-1.058,1.045-4.928,1.102-10.28c0-0.54-0.449-1.01-0.718-1.291c-0.049-0.052-0.093-0.097-0.125-0.135
                            c-0.258-0.3-0.598-0.671-0.992-1.1c-0.259-0.283-0.545-0.594-0.853-0.935c-0.492-0.544-1.042-1.043-1.573-1.524
                            c-0.653-0.592-1.329-1.204-1.884-1.894c-0.83-1.031-1.596-2.835-1.458-4.29c0.021-0.219-0.03-0.409-0.144-0.534
                            C25.373,2.324,25.175,2.281,25,2.35c-0.175-0.069-0.374-0.026-0.5,0.114c-0.114,0.125-0.165,0.314-0.144,0.534
                            c0.139,1.454-0.628,3.259-1.458,4.29c-0.555,0.69-1.231,1.302-1.884,1.894c-0.531,0.482-1.081,0.98-1.573,1.524
                            c-0.308,0.341-0.594,0.653-0.853,0.935c-0.394,0.429-0.734,0.8-0.992,1.1c-0.032,0.038-0.076,0.083-0.125,0.135
                            c-0.268,0.281-0.718,0.75-0.718,1.293c0.057,5.349,0.858,9.219,1.102,10.277l0.009,0.037c0.162,0.731,0.411,1.443,0.651,2.131
                            c0,0,0.443,1.353,0.504,1.577c0.033,0.122,0.057,0.212,0.067,0.243c0.365,1.193,1.215,4.354,1.215,7.934
                            c0,2.779-1.408,4.199-1.768,4.31c-0.914,0.284-1.123,0.314-1.905,0.425c-0.254,0.036-0.567,0.08-0.981,0.144
                            c-4.487,0.477-4.971,2.703-4.971,3.639c0,0.251,0.13,1.065,0.722,1.816c0.532,0.674,1.592,1.479,3.621,1.479
                            c0.304,0,0.626-0.018,0.957-0.054c1.35-0.145,2.711-0.363,4.027-0.573c0.478-0.076,0.955-0.153,1.433-0.226
                            c0.637-0.098,1.784-0.162,3.41-0.192c0.076-0.002,0.129-0.003,0.155-0.003c0.026,0.001,0.079,0.002,0.155,0.003
                            c1.626,0.03,2.774,0.094,3.411,0.192c0.478,0.073,0.955,0.15,1.433,0.226c1.316,0.21,2.677,0.428,4.027,0.573
                            c0.331,0.036,0.653,0.054,0.957,0.054c2.029,0,3.089-0.804,3.621-1.479c0.592-0.751,0.722-1.565,0.722-1.816
                            C39.325,43.951,38.841,41.725,34.354,41.248z M27.372,23.023c-0.067,0-0.13-0.014-0.194-0.045
                            c-0.209-0.083-0.476-0.482-0.501-0.637c1.04-0.723,1.742-2.096,1.742-3.672c0-2.328-0.246-4.215-3.419-4.215
                            c-3.173,0-3.419,1.887-3.419,4.215c0,1.576,0.702,2.949,1.742,3.672c-0.024,0.154-0.298,0.534-0.501,0.637
                            c-0.064,0.03-0.127,0.045-0.194,0.045c-0.668,0-1.505-1.462-1.725-2.044c-0.375-0.989-0.842-2.689-0.943-5.169l-0.004-0.095
                            c-0.026-0.523,0.762-1.859,0.866-2.087c0.143-0.315,2.003-3.148,2.556-3.82C23.572,9.57,24.563,8.255,25,7.675
                            c0.437,0.58,1.427,1.895,1.623,2.133c0.553,0.672,2.412,3.505,2.556,3.82c0.104,0.228,0.892,1.565,0.866,2.087l-0.004,0.095
                            c-0.101,2.48-0.568,4.18-0.943,5.169C28.878,21.56,28.041,23.023,27.372,23.023z"></path>
                        </g>
                      </g>
                    </svg>