
<svg version="1.1" id="Layer_1" xmlns="http://www.w3.org/2000/svg" xmlns:xlink="http://www.w3.org/1999/xlink" x="0px" y="0px" viewBox="0 0 50 50" style="enable-background:new 0 0 50 50;" xml:space="preserve" class=" drawsvg-initialized ">
                      <g id="Icon_6_">
                        <g>
                          <path style="fill-rule: evenodd; clip-rule: evenodd; fill: rgb(254, 134, 212); stroke-dasharray: 184.366, 184.366; stroke-dashoffset: 0;" d="M10.065,20.685c0.763-0.161,2.295,0.756,2.514,0.936
                            c0.482,0.418,0.889,0.856,1.283,1.281c1.154,1.243,2.244,2.418,4.699,2.332c1.912-0.067,3.115,0.813,4.508,1.832
                            c0.672,0.492,1.367,1,2.202,1.453c0.004,0.002,0.009,0.005,0.015,0.007c0.192,0.091,0.519,0.156,0.985-0.056c0,0,0,0,0,0
                            c1.165-0.531,2.756-2.672,2.374-4.111c-0.16-0.603-0.717-1.289-2.461-1.133c-2.627,0.232-4.318-0.027-5.027-0.771
                            c-0.317-0.332-0.433-0.762-0.356-1.314c0.073-0.523,0.403-1.073,0.751-1.656c0.527-0.88,1.124-1.878,1.095-3.142
                            c-0.015-0.692,0.221-4.335,0.26-4.64c0.016-0.065,0.01-0.137-0.021-0.202c-0.071-0.152-0.252-0.218-0.405-0.148
                            c-0.002,0-0.003,0.001-0.004,0.002c-1.044,0.491-3.016,2.296-4.194,3.374c-0.061,0.056-0.119,0.109-0.175,0.159
                            c-1.307-2.138-3.138-2.965-3.219-3c-0.096-0.043-0.208-0.033-0.296,0.027c-0.088,0.059-0.138,0.159-0.134,0.265
                            c0.001,0.032,0.122,3.206-0.003,4.688c-0.049,0.583-0.207,0.854-0.603,1.035c-0.406,0.185-1.078,0.28-1.962,0.365
                            c-0.279,0.027-0.503,0.081-0.687,0.164c-0.488,0.222-0.599,0.611-0.697,0.954c-0.079,0.275-0.468,0.535-0.731,0.783
                            c-0.123,0.116-0.128,0.309-0.012,0.432C9.845,20.683,9.96,20.712,10.065,20.685z M44.635,29.528
                            c-2.723-0.527-5.31-0.896-7.91-1.13c-0.517-0.046-1.04-0.07-1.556-0.07c-3.377,0-6.135,0.971-8.802,1.911
                            c-0.752,0.265-1.849,0.529-3.012,0.81c-1.697,0.409-3.451,0.832-4.278,1.298c-0.749,0.422-1.031,0.938-0.839,1.533
                            c0.281,0.868,1.443,1.255,3.767,1.255c1.553,0,3.472-0.172,5.504-0.354c0.326-0.029,0.658-0.059,0.993-0.089
                            c-2.778,0.746-5.148,1.124-7.056,1.124c-2.191,0-3.621-0.508-4.025-1.431c-0.286-0.652-0.015-1.472,0.761-2.309l0.115-0.124
                            l-0.165-0.041c-0.085-0.021-8.558-2.108-10.182-2.464c-0.358-0.078-0.722-0.118-1.081-0.118c-1.291,0-2.34,0.512-2.494,1.217
                            c-0.075,0.341,0.01,1.008,1.423,1.656l12.385,5.204c0.413,0.152,0.838,0.329,1.288,0.516c1.375,0.571,2.797,1.161,4.118,1.161
                            c0.55,0,1.076-0.057,1.608-0.175c0.959-0.212,3.38-0.927,5.943-1.685c2.495-0.737,5.076-1.5,6.108-1.732
                            c0.81-0.182,1.645-0.27,2.553-0.27c1.565,0,3.1,0.263,4.666,0.555l0.533,0.1v-6.277L44.635,29.528z"></path>
                        </g>
                      </g>
                    </svg>