<svg version="1.1" id="Layer_1" xmlns="http://www.w3.org/2000/svg" xmlns:xlink="http://www.w3.org/1999/xlink" x="0px" y="0px" viewBox="0 0 50 50" style="enable-background:new 0 0 50 50;" xml:space="preserve" class=" drawsvg-initialized ">
                      <g id="Icon_9_">
                        <g>
                          <path style="fill-rule: evenodd; clip-rule: evenodd; fill: rgb(254, 134, 212); stroke-dasharray: 267.745, 267.745; stroke-dashoffset: 0;" d="M31.54,10.4c0,0,2.875,5.005,2.875,2.237
                            c0-2.766-2.274-5.009-5.075-5.009c-2.802,0-5.075,2.242-5.075,5.009C24.264,15.405,31.54,10.4,31.54,10.4z M35.164,6.723
                            c0.274-0.151,0.542-0.294,0.783-0.395c0.234-0.101,0.473-0.147,0.498-0.092c0.014,0.022-0.059,0.054-0.128,0.049
                            c-0.069-0.004-0.097-0.017-0.089,0.017c0,0.024,0.036,0.113,0.047,0.159l0.039,0.099c-0.008-0.008,0.017,0.052,0.023,0.074
                            l0.062,0.19l0.541,1.695c0.407,1.186,0.967,2.517,2.048,3.582c0.538,0.522,1.209,0.944,1.924,1.146
                            c0.715,0.203,1.446,0.206,2.109,0.013c-0.586-0.367-1.088-0.724-1.475-1.134c-0.391-0.404-0.679-0.83-0.917-1.292
                            c-0.476-0.919-0.774-1.984-1.168-3.149c-0.202-0.582-0.417-1.193-0.736-1.827l-0.127-0.239L38.52,5.48l-0.066-0.109
                            c-0.136-0.231-0.271-0.403-0.48-0.613c-0.204-0.198-0.487-0.41-0.85-0.526c-0.362-0.118-0.762-0.109-1.058-0.027
                            c-0.305,0.078-0.527,0.212-0.712,0.341c-0.184,0.132-0.338,0.266-0.465,0.407c-0.263,0.279-0.458,0.562-0.635,0.844
                            c-0.175,0.285-0.33,0.565-0.473,0.852c-0.073,0.143-0.147,0.282-0.23,0.414c-0.077,0.143-0.157,0.27-0.283,0.389
                            c0.363,0.033,0.71-0.14,1.018-0.273C34.6,7.037,34.885,6.872,35.164,6.723z M45.422,40.497c-3.76-1.96-7.587-3.782-11.503-5.393
                            c-0.36,1.982-0.899,3.936-1.473,5.805c3.377,1.422,6.681,3.004,9.944,4.707C45.813,47.399,48.847,42.282,45.422,40.497z
                             M31.374,23.708c-0.051-0.086-0.103-0.165-0.158-0.242c-0.185-2.065-1.336-3.865-3.631-4.488c-0.953-0.259-2.051-0.188-3.062,0.15
                            c-0.058-0.042-0.113-0.083-0.175-0.121c-4.407-2.739-8.633-5.692-12.604-9.023c-2.932-2.459-7.201,1.714-4.246,4.192
                            c4.28,3.589,8.815,6.822,13.558,9.784c-0.367,1.998-0.844,3.974-1.383,5.933c-4.369-1.349-8.615-3.173-13.255-3.334
                            c-1.593-0.055-3.061,1.39-3.003,2.966c0.149,4.054,1.444,7.748,3.213,11.375c1.679,3.445,6.856,0.436,5.186-2.991
                            c-0.78-1.603-1.446-3.241-1.878-4.94c4.152,0.929,8.139,2.93,12.301,3.709c0.044,0.008,0.085,0.012,0.128,0.017
                            c1.168,0.459,2.496,0.986,2.751,1.071c0.579-1.9,1.075-3.821,1.321-5.735c0.261-0.249,0.547-0.449,0.842-0.61
                            c-0.14,3.929-1.562,7.923-2.75,11.599c-1.179,3.654,4.618,5.204,5.792,1.576C32.444,38.019,35.155,30.163,31.374,23.708z"></path>
                        </g>
                      </g>
                    </svg>