<svg version="1.1" id="Layer_1" xmlns="http://www.w3.org/2000/svg" xmlns:xlink="http://www.w3.org/1999/xlink" x="0px" y="0px" viewBox="0 0 50 50" style="enable-background:new 0 0 50 50;" xml:space="preserve" class=" drawsvg-initialized ">
                      <g id="Icon_10_">
                        <g>
                          <path style="fill-rule: evenodd; clip-rule: evenodd; fill: rgb(254, 134, 212); stroke-dasharray: 192.638, 192.638; stroke-dashoffset: 0;" d="M36.703,25.762c-0.205-5.767-1.926-11.358-5.408-16.024
                            c-0.313-0.418-0.669-0.788-1.057-1.105c-1.189-1.821-2.692-3.417-4.646-4.455c-2.905-1.543-6.139-0.19-6.907,2.991
                            c-0.719,2.98-0.175,6.641-0.212,9.67c-0.022,1.991-0.046,3.983-0.068,5.973c1.925-0.476,3.968-0.685,6.127-0.603
                            c0.023-2.014,0.046-4.026,0.07-6.038c1.445,2.369,2.392,4.908,2.754,7.659c-5.369-0.938-10.769-0.285-15.362,2.998
                            c-2.535,1.81-0.095,6.018,2.469,4.186c4.285-3.062,9.034-3.285,14.026-1.978c0.262,0.069,0.506,0.085,0.741,0.079
                            C31.93,31.166,36.857,30.069,36.703,25.762z M18.317,30.524c-0.05,4.334-0.1,8.671-0.15,13.005c-0.044,3.909,6.076,3.906,6.12,0
                            l-0.109-14.065C22.052,29.396,20.116,29.751,18.317,30.524z M34.182,30.904c-2.706,0-4.896,2.172-4.896,4.847
                            c0,2.678,2.192,4.849,4.896,4.849c2.702,0,4.893-2.171,4.893-4.849C39.075,33.075,36.884,30.904,34.182,30.904z"></path>
                        </g>
                      </g>
                    </svg>