<svg version="1.1" id="Layer_1" xmlns="http://www.w3.org/2000/svg" xmlns:xlink="http://www.w3.org/1999/xlink" x="0px" y="0px" viewBox="0 0 50 50" style="enable-background:new 0 0 50 50;" xml:space="preserve" class=" drawsvg-initialized ">
                      <g id="Icon_11_">
                        <g>
                          <path style="fill-rule: evenodd; clip-rule: evenodd; fill: rgb(254, 134, 212); stroke-dasharray: 175.343, 175.343; stroke-dashoffset: 0;" d="M21.717,11.88c0,1.642,1.301,2.972,2.906,2.972
                            c1.606,0,2.905-1.33,2.905-2.972c0-1.641-1.299-2.972-2.905-2.972C23.018,8.908,21.717,10.238,21.717,11.88z M28.703,26.392
                            c0-2.925,0.039-2.994-0.102-5.561c0,0,4.642-5.178,4.642-8.127c0-4.093-6.436-9.518-7.234-8.62
                            c-0.545,0.61,4.426,4.961,4.426,8.094c0,1.567-2.251,4.199-2.863,4.635c-0.374,0.267-1.589,0.22-3.056,0.24
                            c-0.926,0.015-2.745-0.017-3.037-0.315c-0.765-0.782-2.742-3.078-2.742-4.234c0-2.437,4.477-8.152,3.781-8.595
                            c-0.631-0.405-6.877,6.54-6.877,8.705c0,3.321,4.361,8.213,4.361,8.213s-0.035,6.707-0.035,7.408
                            c0,6.019,2.053,17.872,3.833,17.872c1.096,0,0.139-6.3,0.139-9.286c0-3.547,0.684-7.094,0.684-7.094s5.461,1.948,4.879,2.561
                            c-1.366,1.437-5.077,2.833-4.597,3.569c0.607,0.925,6.045-0.522,9.277-3.134C35.535,31.631,28.703,26.392,28.703,26.392z"></path>
                        </g>
                      </g>
                    </svg>