<svg version="1.1" class="service-detail-img" id="Layer_1" xmlns="http://www.w3.org/2000/svg" xmlns:xlink="http://www.w3.org/1999/xlink" x="0px" y="0px" viewBox="0 0 90 65" style="enable-background:new 0 0 90 65;" xml:space="preserve">
            <g id="Icon_5_">
              <g>
                <path style="fill-rule:evenodd;clip-rule:evenodd;fill:#FE86D4;" d="M73.807,31.482H53.889c-0.69,0,0-0.638,0-0.638l-0.007-0.002
                  c0.315-0.291,0.561-0.559,0.741-0.764c3.18-4.2,0.47-10.455,0.054-11.352c-1.486-2.617-3.294-4.055-5.108-4.788
                  c-0.141-0.052-0.278-0.1-0.442-0.171c-0.818-0.302-1.771-0.591-2.825-0.808c-4.616-0.69-8.99,1.472-9.028,1.491
                  c-3.991,2.281-14.17,8.277-18.715,12.622c-0.222,0.208-0.44,0.424-0.651,0.652c-0.167,0.177-0.32,0.348-0.464,0.517
                  c-0.038,0.047-0.079,0.088-0.115,0.135c-0.135,0.165-0.261,0.328-0.373,0.485l0.031-0.013c-0.89,1.219-1.619,2.665-2.067,4.415
                  c-1.441,4.545,0.106,14.695,8.643,17.896c0.378,0.125,2.029,0.61,4.509,0.61h23.381c0.81-0.031,2.752-0.297,4.618-1.962
                  c0-0.002,0-0.002,0.003-0.004l17.4-15.578l0.498-0.446C76.441,31.566,73.807,31.482,73.807,31.482z M37.499,18.076
                  c0.056-0.033,8.455-4.878,12.948,0.829c0.593,0.821,1.215,1.823,1.695,2.909c0.046,0.157,1.35,4.826-0.808,7.232
                  c-0.021,0.021-0.037,0.046-0.058,0.065c-0.048,0.052-0.109,0.096-0.159,0.144c-0.189,0.177-0.389,0.354-0.613,0.523l-9.391,7.026
                  c0.226-4.088-1.45-8.173-2.297-9.533c-2.171-3.144-5.231-4.185-7.106-4.532c-0.584-0.102-1.678-0.122-1.678-0.122L37.499,18.076z
                   M67.862,35.813l-12.23,11.127c-1.897,1.723-3.909,2.027-4.804,2.07H27.525c-1.828,0-3.754-0.677-3.928-0.738
                  c-0.569-0.276-1.169-0.601-1.775-0.99c-6.676-4.279-4.672-12.448-4.347-13.615c0.007-0.019,0.011-0.037,0.018-0.057
                  c0.015-0.057,0.028-0.095,0.028-0.095l-0.002-0.001c1.435-4.548,4.818-7.862,11.184-8.055c0.795,0.015,3.099,0.203,5.148,1.757
                  c0.505,0.412,1.008,0.895,1.502,1.48c0.977,1.263,3.243,4.942,2.211,9.195c-0.831,2.789-2.038,3.994-3.701,5.115
                  c-1.665,1.123-4.966,2.156-8.067,0.258c-1.807-1.238-3.184-3.361-2.927-6.18c0.259-2.817,3.158-4.856,5.74-4.252
                  c2.584,0.603,4.106,4.481,1.32,6.034c-1.312,0.558-2.105,0.227-2.625-0.485l-0.001,0.004c0,0-0.747-0.696-1.695-0.266
                  c-0.938,0.428-0.637,1.764-0.633,1.787c1.023,1.506,2.989,2.632,5.936,1.591c0.679-0.239,1.232-0.614,1.691-1.066h0.007
                  c0,0,0.045-0.046,0.108-0.113c0.1-0.104,0.194-0.215,0.285-0.328c1.014-1.251,3.395-5.016-0.393-9.268
                  c-2.209-1.772-9.049-3.675-11.907,3.96c-0.106,0.252-0.201,0.511-0.283,0.784c-0.013,0.039-0.028,0.069-0.041,0.108
                  c0.003,0.002,0.003,0,0.005,0.002c-0.502,1.729-0.5,3.84,0.533,6.193c2.296,5.23,8.926,6.636,13.748,4.051
                  c0.874-0.468,1.665-1.047,2.368-1.713l-0.004,0.006l11.654-9.152c0,0,0.815-0.736,2.065-0.736h17.09
                  C69.5,34.224,68.059,35.629,67.862,35.813z"></path>
              </g>
            </g>
            </svg>